<svg aria-hidden="true" style="position: absolute; width: 0; height: 0; overflow: hidden;" version="1.1" xmlns="http://www.w3.org/2000/svg" xmlns:xlink="http://www.w3.org/1999/xlink">
<defs>
<symbol id="svg-films" viewBox="0 0 32 32">
<path d="M20.656 1.156c-0.156 0.15-0.156 0.15-0.156 1.5v1.344h-2v1h2v4.694l0.156 0.15 0.15 0.156h6.387l0.15-0.156 0.156-0.15v-8.387l-0.156-0.15-0.15-0.156h-6.387l-0.15 0.156zM26.5 7v2h-5v-4h5v2z"></path>
<path d="M22.5 6.5v0.5h1v-1h-1v0.5z"></path>
<path d="M8.5 10c-0.113 0.238-0.2 0.444-0.181 0.463 0.012 0.012 1.15 0.588 2.525 1.275l2.5 1.256h-2.519l-2.519 0.006-0.15 0.156-0.156 0.15v6.388l0.156 0.15 0.15 0.156h7.387l0.15-0.156c0.131-0.125 0.156-0.212 0.156-0.525v-0.375l0.338 0.038c0.5 0.050 0.906-0.106 1.244-0.481 0.15-0.169 0.3-0.394 0.337-0.512 0.063-0.188 0.069-0.169 0.075 0.25 0.006 0.394 0.025 0.475 0.163 0.606 0.081 0.087 0.212 0.156 0.294 0.156s0.55-0.131 1.050-0.281c0.5-0.156 0.925-0.281 0.956-0.281 0.025 0 0.044 0.506 0.044 1.125 0 1.119 0 1.131 0.156 1.281 0.137 0.144 0.2 0.156 0.75 0.156h0.594v7h-0.844c-0.819 0-0.856 0.006-1 0.156-0.156 0.15-0.156 0.163-0.156 1.344s0 1.194 0.156 1.344l0.15 0.156h5.387l0.15-0.156 0.156-0.15v-9.694h0.594c0.55 0 0.613-0.012 0.75-0.156l0.156-0.15v-9.387l-0.156-0.15-0.15-0.156h-9.387l-0.15 0.156c-0.137 0.131-0.156 0.213-0.163 0.606-0.006 0.425-0.012 0.444-0.075 0.238-0.1-0.306-0.637-0.831-0.956-0.925-0.863-0.256-1.738 0.269-1.925 1.156l-0.044 0.2-2.875-1.431c-1.575-0.794-2.875-1.438-2.887-1.438s-0.113 0.194-0.231 0.438zM16.212 12.069c0.363 0.169 0.344 0.719-0.031 0.869-0.394 0.162-0.781-0.225-0.625-0.619 0.119-0.275 0.375-0.375 0.656-0.25zM20.5 12.5v0.5h-2v-1h2v0.5zM17.681 13.881c0.131 0.106 0.262 0.119 1.481 0.119h1.337v1.3l-1.156 0.387c-0.825 0.275-1.181 0.425-1.25 0.519-0.063 0.087-0.094 0.294-0.1 0.575-0.006 0.4-0.012 0.419-0.075 0.231-0.038-0.119-0.188-0.344-0.337-0.512-0.337-0.375-0.744-0.531-1.244-0.481l-0.338 0.038v-1.031c0-0.906 0.013-1.025 0.1-1.025 0.462 0 1.156-0.512 1.288-0.956l0.081-0.262 0.031 0.488c0.025 0.419 0.050 0.512 0.181 0.613zM24.206 13.069c0.262 0.119 0.294 0.294 0.294 1.713v1.337l-0.481 0.156c-0.269 0.081-1.469 0.45-2.675 0.819-1.2 0.369-2.225 0.688-2.269 0.706-0.063 0.019-0.075-0.081-0.063-0.456l0.019-0.488 2.125-0.712c1.506-0.5 2.156-0.744 2.238-0.838 0.087-0.113 0.106-0.269 0.113-1.019 0-0.481 0.025-0.931 0.050-1 0.044-0.119 0.288-0.281 0.425-0.287 0.044 0 0.144 0.031 0.225 0.069zM9.781 14.5c-0.331 0.331-0.544 0.5-0.637 0.5-0.137 0-0.144-0.019-0.144-0.5v-0.5h1.281l-0.5 0.5zM12.781 14.5l-0.5 0.5h-1.563l1-1h1.563l-0.5 0.5zM15 14.5v0.5h-1.281l0.5-0.5c0.331-0.331 0.544-0.5 0.637-0.5 0.137 0 0.144 0.019 0.144 0.5zM15 17.5v1.5h-6v-3h6v1.5zM16.712 17.069c0.363 0.169 0.344 0.719-0.031 0.869-0.394 0.163-0.781-0.225-0.625-0.619 0.119-0.275 0.375-0.375 0.656-0.25zM25 24.5v3.5h-2v-7h2v3.5z"></path>
<path d="M5.481 10.988c-0.162 0.162-0.294 0.325-0.294 0.363 0 0.081 1.388 1.463 1.475 1.463 0.081 0 0.65-0.575 0.65-0.662 0-0.081-1.388-1.463-1.475-1.463-0.031 0-0.194 0.137-0.356 0.3z"></path>
<path d="M5 14.5v0.5h2v-1h-2v0.5z"></path>
<path d="M5.888 16.894c-0.381 0.387-0.7 0.731-0.7 0.769 0 0.081 0.575 0.65 0.662 0.65 0.081 0 1.463-1.387 1.463-1.475 0-0.081-0.575-0.65-0.662-0.65-0.031 0-0.375 0.319-0.763 0.706z"></path>
<path d="M14.169 21.137c-0.131 0.131-0.225 0.619-0.906 4.738-0.419 2.525-0.762 4.644-0.762 4.706s0.069 0.181 0.156 0.262l0.15 0.156h5.388l0.15-0.156c0.087-0.081 0.156-0.212 0.156-0.281 0-0.075-0.125-0.887-0.281-1.813s-0.281-1.694-0.281-1.712c0-0.019 0.394-0.038 0.875-0.038 0.85 0 0.887-0.006 1.031-0.156l0.156-0.15v-3.387l-0.156-0.15c-0.15-0.156-0.156-0.156-1.369-0.156h-1.212l-0.069-0.394c-0.038-0.212-0.1-0.6-0.144-0.856-0.119-0.756-0.113-0.75-1.55-0.75-1.156 0-1.2 0.006-1.331 0.137zM16.087 22.169c0.056 0.288 1.288 7.7 1.288 7.769 0 0.044-0.631 0.063-1.875 0.063s-1.875-0.019-1.875-0.063c0-0.069 1.231-7.481 1.287-7.769 0.037-0.169 0.037-0.169 0.588-0.169s0.55 0 0.587 0.169zM19 25v1h-0.625c-0.344 0-0.625-0.019-0.625-0.050 0-0.025-0.069-0.45-0.156-0.95s-0.156-0.925-0.156-0.956c0-0.025 0.35-0.044 0.781-0.044h0.781v1z"></path>
<path d="M7 30.5v0.5h1v-1h-1v0.5z"></path>
<path d="M10.5 30.5v0.5h1v-1h-1v0.5z"></path>
</symbol>
<symbol id="youtube" viewBox="0 0 32 32">
<path d="M31.681 9.6c0 0-0.313-2.206-1.275-3.175-1.219-1.275-2.581-1.281-3.206-1.356-4.475-0.325-11.194-0.325-11.194-0.325h-0.012c0 0-6.719 0-11.194 0.325-0.625 0.075-1.987 0.081-3.206 1.356-0.963 0.969-1.269 3.175-1.269 3.175s-0.319 2.588-0.319 5.181v2.425c0 2.587 0.319 5.181 0.319 5.181s0.313 2.206 1.269 3.175c1.219 1.275 2.819 1.231 3.531 1.369 2.563 0.244 10.881 0.319 10.881 0.319s6.725-0.012 11.2-0.331c0.625-0.075 1.988-0.081 3.206-1.356 0.962-0.969 1.275-3.175 1.275-3.175s0.319-2.587 0.319-5.181v-2.425c-0.006-2.588-0.325-5.181-0.325-5.181zM12.694 20.15v-8.994l8.644 4.513-8.644 4.481z"></path>
</symbol>
</defs>
</svg>
